# xmcd
#
# Track frame offsets:
#	150
#	17231
#	34367
#	51601
#	66995
#	82640
#	100389
#	117887
#	134117
#	150639
#	169140
#	188435
#	207381
#
# Disc length: 3016 seconds
#
# Revision: 1
# Processed by: cddbd v1.4PL0 Copyright (c) Steve Scherf et al.
# Submitted via: audiograbber 1.80
#
DISCID=b80bc60d
DTITLE=Kaiti Garbi - Apla Ta Pragmata - cd 2
DYEAR=1900
DGENRE=
TTITLE0=Den Eipa Pote Psemata
TTITLE1=Sto Skonismeno Sou Amaksi
TTITLE2=Zitas
TTITLE3=OsoTha Leipeis
TTITLE4=Thelo Na Se Vlepo
TTITLE5=Fila Me
TTITLE6=Moni Mou
TTITLE7=Kane To Logariasmo
TTITLE8=Staxti
TTITLE9=Vale
TTITLE10=Stigmes
TTITLE11=Epanastasi
TTITLE12=Ti Theloune Ta Matia Sou
EXTD=
EXTT0=
EXTT1=
EXTT2=
EXTT3=
EXTT4=
EXTT5=
EXTT6=
EXTT7=
EXTT8=
EXTT9=
EXTT10=
EXTT11=
EXTT12=
PLAYORDER=
